<?xml version="1.0" encoding="UTF-8" standalone="no"?>
<svg
   xmlns:dc="http://purl.org/dc/elements/1.1/"
   xmlns:cc="http://creativecommons.org/ns#"
   xmlns:rdf="http://www.w3.org/1999/02/22-rdf-syntax-ns#"
   xmlns:svg="http://www.w3.org/2000/svg"
   xmlns="http://www.w3.org/2000/svg"
   xmlns:sodipodi="http://sodipodi.sourceforge.net/DTD/sodipodi-0.dtd"
   xmlns:inkscape="http://www.inkscape.org/namespaces/inkscape"
   width="16"
   height="16"
   version="1.1"
   id="svg6"
   sodipodi:docname="archlinux-logo-white.svg"
   inkscape:version="1.0.1 (3bc2e813f5, 2020-09-07)">
  <metadata
     id="metadata12">
    <rdf:RDF>
      <cc:Work
         rdf:about="">
        <dc:format>image/svg+xml</dc:format>
        <dc:type
           rdf:resource="http://purl.org/dc/dcmitype/StillImage" />
        <dc:title></dc:title>
      </cc:Work>
    </rdf:RDF>
  </metadata>
  <defs
     id="defs10" />
  <sodipodi:namedview
     pagecolor="#ffffff"
     bordercolor="#666666"
     borderopacity="1"
     objecttolerance="10"
     gridtolerance="10"
     guidetolerance="10"
     inkscape:pageopacity="0"
     inkscape:pageshadow="2"
     inkscape:window-width="1920"
     inkscape:window-height="1020"
     id="namedview8"
     showgrid="true"
     inkscape:zoom="31.441018"
     inkscape:cx="6.2751146"
     inkscape:cy="10.588656"
     inkscape:window-x="0"
     inkscape:window-y="0"
     inkscape:window-maximized="1"
     inkscape:current-layer="svg6"
     inkscape:document-rotation="0">
    <inkscape:grid
       type="xygrid"
       id="grid50" />
  </sodipodi:namedview>
  <path
     style="fill:#ffffff;fill-opacity:1;stroke-width:1.2"
     d="M 8.0004091,1.9996356 C 7.4658362,3.3092546 7.1433885,4.1670339 6.5484745,5.4377085 6.9135928,5.8242638 7.3609953,6.2722036 8.0875711,6.7806061 7.3061359,6.4590224 6.7740061,6.1384759 6.3753639,5.8034179 5.6140469,7.3916518 4.4199509,9.6518226 2,13.999666 3.9018354,12.901916 5.5392999,12.225955 6.9132144,11.967521 6.854087,11.713956 6.8211709,11.438452 6.8236102,11.151977 l 0.00172,-0.05912 c 0.029862,-1.2184401 0.5020221,-2.3166017 1.2529799,-2.2532117 0.7509585,0.06339 1.1290738,1.2651727 1.0985973,2.4836037 -0.00549,0.229185 -0.031071,0.449221 -0.076195,0.65341 1.3586746,0.266362 3.0243606,0.940494 4.8993136,2.023004 -0.36999,-0.680834 -0.701584,-1.293407 -1.01672,-1.877938 -0.496777,-0.385215 -1.01367,-0.886243 -2.070618,-1.428723 0.725967,0.188955 1.247734,0.405945 1.653083,0.649755 C 9.359576,5.3732213 9.099299,4.5801092 8.0002936,2 Z"
     id="path4" />
</svg>
