<?xml version="1.0" encoding="UTF-8" standalone="no"?>
<svg
   xmlns:dc="http://purl.org/dc/elements/1.1/"
   xmlns:cc="http://creativecommons.org/ns#"
   xmlns:rdf="http://www.w3.org/1999/02/22-rdf-syntax-ns#"
   xmlns:svg="http://www.w3.org/2000/svg"
   xmlns="http://www.w3.org/2000/svg"
   xmlns:sodipodi="http://sodipodi.sourceforge.net/DTD/sodipodi-0.dtd"
   xmlns:inkscape="http://www.inkscape.org/namespaces/inkscape"
   version="1.1"
   id="svg2"
   width="446"
   height="521"
   viewBox="0 0 446 521"
   sodipodi:docname="tux-black.svg"
   inkscape:version="1.0.1 (3bc2e813f5, 2020-09-07)">
  <metadata
     id="metadata8">
    <rdf:RDF>
      <cc:Work
         rdf:about="">
        <dc:format>image/svg+xml</dc:format>
        <dc:type
           rdf:resource="http://purl.org/dc/dcmitype/StillImage" />
        <dc:title />
      </cc:Work>
    </rdf:RDF>
  </metadata>
  <defs
     id="defs6" />
  <sodipodi:namedview
     pagecolor="#ffffff"
     bordercolor="#666666"
     borderopacity="1"
     objecttolerance="10"
     gridtolerance="10"
     guidetolerance="10"
     inkscape:pageopacity="0"
     inkscape:pageshadow="2"
     inkscape:window-width="1920"
     inkscape:window-height="1020"
     id="namedview4"
     showgrid="false"
     inkscape:zoom="4.5564112"
     inkscape:cx="332.18892"
     inkscape:cy="441.38761"
     inkscape:window-x="0"
     inkscape:window-y="0"
     inkscape:window-maximized="1"
     inkscape:current-layer="g10"
     inkscape:document-rotation="0" />
  <g
     inkscape:groupmode="layer"
     inkscape:label="Image"
     id="g10">
    <path
       style="fill:#000000;stroke-width:0.999999"
       d="m 123.97678,509.53326 c -4.67501,-1.55996 -14.35,-5.10103 -21.5,-7.86905 -19.007998,-7.35874 -23.502688,-8.66997 -50.503408,-14.73331 -29.20962,-6.55941 -36.52006,-8.85449 -40.32578,-12.66021 -2.5614203,-2.56143 -2.8122303,-3.39126 -2.4448603,-8.08944 0.22526,-2.87939 1.6163903,-9.22307 3.0916903,-14.09711 3.22753,-10.66291 3.40804,-18.23867 0.68235,-28.63812 -2.63535,-10.05494 -2.62522,-19.46226 0.0265,-23.81019 2.79886,-4.59065 6.64917,-5.83404 20.18858,-6.51954 8.79367,-0.44523 12.67468,-1.08313 15.56689,-2.55859 5.07208,-2.58761 5.76015,-3.52051 10.20688,-13.83919 2.11279,-4.9028 4.38289,-8.77251 5.1462,-8.77251 4.1794,0 -0.16894,20.27392 -5.57862,26.00976 -4.54878,4.82313 -9.59255,5.84633 -24.71966,5.01468 -11.99596,-0.65949 -12.7742,-0.58617 -14.75002,1.3897 -3.00862,3.00858 -2.60553,6.60476 1.97344,17.60693 2.23264,5.36447 4.48845,12.07479 5.0129,14.91182 1.28413,6.94647 -0.29178,14.77599 -4.23991,21.06712 -5.87248,9.35706 -6.16547,10.03654 -5.48916,12.73104 0.82171,3.27405 -0.11225,2.98711 51.15685,15.7203 55.217808,13.71394 62.059388,15.21048 69.570938,15.21831 14.31965,0.0151 22.16564,-7.37964 24.98037,-23.54298 2.55171,-14.65293 -1.42843,-24.12817 -25.04689,-59.62666 -34.43687,-51.75855 -46.137678,-63.8126 -58.339658,-60.10076 -2.29062,0.69679 -5.5638,1.49635 -7.27381,1.77679 -3.88078,0.63643 -4.35817,-0.75632 -4.37726,-12.76947 -0.0151,-10.4575 1.04988,-13.71591 11.75233,-35.90657 4.37684,-9.07499 10.97484,-24.37501 14.66218,-33.99999 8.816048,-23.01226 12.264338,-29.72591 21.922808,-42.68255 12.094,-16.22381 34.72831,-49.34842 36.36382,-53.21733 1.23179,-2.91379 1.25866,-6.345 0.18784,-24 -0.68711,-11.33008 -1.28382,-36.35014 -1.326,-55.600139 -0.068,-31.03341 0.13568,-35.85001 1.79576,-42.50001 6.18218,-24.7615 19.93013,-39.134514 43.03745,-44.994142 12.25057,-3.1065448 35.91812,-2.8722518 49.15935,0.486652 25.38116,6.438463 43.93414,22.357946 50.42865,43.2706 3.06599,9.87254 4.77895,21.83203 6.98068,48.736909 3.16686,38.6993 4.3708,44.21117 13.76073,63 10.74954,21.50944 17.25381,31.9759 34.05199,54.79586 6.80009,9.23773 14.65735,20.48772 17.46059,24.99998 11.32301,18.22621 18.59905,37.38807 23.97067,63.12821 2.62205,12.56443 3.15708,17.40824 3.21177,29.07594 0.0635,13.5354 -0.0302,14.19912 -2.87872,20.00001 -3.78663,7.71651 -20.37985,24.43106 -29.5646,29.78083 -7.83972,4.56635 -16.07777,7.12906 -20.57219,6.39972 -9.00155,-1.46075 -17.52095,-9.01092 -22.86017,-20.25948 -3.83184,-8.07277 -5.6321,-9.25288 -10.81297,-7.0882 -5.52631,2.30903 -7.13276,6.92644 -7.53834,21.66713 -0.26986,9.81044 0.11225,14.75924 1.7763,23.00001 2.82543,13.99242 3.53465,27.44164 2.03025,38.50001 -2.223,16.34014 -2.43265,26.81537 -0.61342,30.64917 4.94688,10.42469 13.89468,16.17827 25.09947,16.1393 9.67676,-0.034 13.51098,-1.86599 30.17495,-14.4203 18.67798,-14.07159 20.56044,-15.10828 39.62567,-21.82235 19.7472,-6.95425 25.24539,-9.69403 29.98749,-14.94296 8.49842,-9.40672 5.23759,-15.50302 -10.7881,-20.16881 -10.68759,-3.11165 -12.21135,-3.8722 -15.86838,-7.92008 -5.5008,-6.0887 -7.97991,-13.84641 -8.06177,-25.22691 -0.0575,-7.96395 0.24378,-10.02697 1.67301,-11.45714 2.50439,-2.50632 3.40497,-0.96333 4.54321,7.78378 0.54494,4.18757 1.76198,9.23898 2.70463,11.22539 2.72153,5.73524 8.96036,12.13538 18.32795,18.80194 17.52783,12.47384 20.95903,17.79836 16.34177,25.35897 -2.91171,4.76787 -18.087,14.83982 -36.06875,23.93911 -19.78764,10.0131 -27.06032,14.99588 -41.39516,28.36131 -14.26023,13.29592 -16.9581,14.57163 -31.80132,15.03745 -20.2653,0.63598 -28.59194,-2.73751 -36.62343,-14.83789 -2.37287,-3.57498 -5.06574,-7.0625 -5.98417,-7.75 -2.65077,-1.98425 -91.56728,-1.74387 -100.11253,0.27061 -8.95975,2.11227 -15.3487,5.51214 -25.67505,13.66303 -4.95001,3.90717 -10.44805,7.71421 -12.21789,8.46014 -5.16,2.1747 -13.83889,1.59447 -23.28212,-1.55656 z m 57.72737,-32.52695 c 1.86659,-3.60956 2.01328,-14.29818 0.24227,-17.64249 -0.70424,-1.32979 -2.83556,-4.32526 -4.73628,-6.65662 -3.35713,-4.11772 -3.78709,-7.26119 -0.99322,-7.26119 0.71656,0 4.35107,2.22228 8.0767,4.93844 9.17582,6.68954 13.23646,7.48944 34.35075,6.76683 30.54176,-1.04527 41.41421,-5.83861 57.40827,-25.30961 1.4025,-1.70736 3.78618,-3.9143 5.29708,-4.90431 2.50345,-1.64028 2.88722,-1.65986 4.32677,-0.22035 2.90683,2.9068 2.70935,10.33285 -0.62446,23.48277 -4.15464,16.38773 -4.86085,23.39811 -2.69076,26.71008 2.25169,3.43649 5.29886,3.32798 6.00484,-0.21393 3.80504,-19.09035 4.83742,-32.08289 5.46274,-68.74998 0.63417,-37.18666 0.69653,-38.07798 2.91379,-41.64355 2.55095,-4.10211 6.60404,-6.3241 13.2593,-7.26906 4.34903,-0.61749 4.59345,-0.83504 6.28305,-5.59215 1.44321,-4.06348 2.60243,-5.44607 6.47494,-7.72244 4.34623,-2.55489 5.54226,-2.77281 15.21694,-2.77281 8.68585,0 11.39596,0.38876 15.68538,2.24999 2.85199,1.23749 5.97366,2.25003 6.9371,2.25003 2.80214,0 -2.9477,-5.40257 -9.25981,-8.70059 -3.21895,-1.68185 -5.35884,-3.46655 -5.36028,-4.47046 -9.8e-4,-0.91911 0.98567,-5.64409 2.19326,-10.50002 1.74067,-6.99935 2.19311,-11.73011 2.18336,-22.82895 -0.0113,-13.07003 -0.22148,-14.61132 -3.16082,-23.2029 -7.17362,-20.9681 -22.39449,-45.53477 -31.82222,-51.3614 -1.92563,-1.19014 -3.72624,-1.93875 -4.00139,-1.6636 -0.27515,0.27515 2.86065,5.61396 6.96839,11.86405 9.47566,14.41773 18.84499,32.34316 21.62026,41.36383 8.10263,26.33704 5.96595,51.81956 -4.96807,59.25003 -2.47027,1.67868 -4.73333,2.2461 -8.91304,2.23469 -9.35036,-0.0265 -10.09927,-1.44545 -10.11065,-19.16897 -0.0113,-19.65102 -1.59602,-34.77963 -4.57198,-43.68326 -1.40311,-4.19784 -6.53435,-15.28248 -11.40272,-24.63246 -6.6841,-12.83709 -9.74774,-20.06098 -12.51092,-29.50001 -4.28931,-14.65213 -9.55975,-26.3972 -15.7917,-35.19144 -9.4315,-13.30935 -11.01868,-20.39388 -7.33481,-32.74005 2.1044,-7.05271 2.0589,-12.31884 -0.12926,-14.95597 -1.01114,-1.21859 -6.46205,-3.75866 -12.91053,-6.01617 -19.77804,-6.92406 -23.79583,-10.40463 -23.77553,-20.59639 0.0227,-10.8415 4.65139,-16.499979 13.50024,-16.499979 4.88085,0 11.17236,3.20496 13.00177,6.623209 1.64387,3.07158 1.60452,9.52815 -0.0983,16.14689 -1.53271,5.95718 -0.77099,7.53381 4.23213,8.75985 3.9103,0.95826 7.43017,-2.87867 8.36606,-9.11966 1.42416,-9.49693 -2.92789,-27.121959 -8.26254,-33.461829 -3.38351,-4.02108 -6.68553,-5.60821 -14.49838,-6.96877 -11.79973,-2.05485 -17.90351,1.54723 -23.68052,13.97466 -2.17761,4.6845 -2.60156,7.09845 -2.7301,15.545659 l -0.15232,9.99998 -2.871,-0.21052 c -11.35,-0.83164 -18.37482,-1.66503 -18.39682,-2.18252 -0.31748,-7.47323 -2.29518,-20.939829 -3.4979,-23.819039 -4.68431,-11.21383 -15.91926,-14.09727 -24.0861,-6.18165 -5.40733,5.241 -6.77197,10.1923 -6.10794,22.161489 0.6133,11.0549 2.64563,18.45189 5.87195,21.37165 1.99022,1.80113 2.08811,1.78008 4.44045,-0.95467 3.06701,-3.56565 3.03012,-5.04549 -0.17801,-7.14766 -3.47747,-2.27852 -5.41648,-7.30836 -5.41648,-14.05058 0,-8.077499 3.56424,-11.334579 11.5,-10.508869 5.96089,0.62026 11.50772,12.448179 9.45328,20.157959 -0.71467,2.68188 -2.40688,4.72147 -6.45029,7.77427 -3.01482,2.27618 -8.6363,7.17074 -12.49221,10.8768 -6.19665,5.95574 -7.0108,7.16666 -7.0108,10.42768 0,3.23478 0.54214,4.06242 4.399,6.71599 2.41942,1.66462 5.87811,4.89418 7.68597,7.17679 4.39729,5.55202 8.02923,6.8942 18.63292,6.88574 10.24137,-0.008 19.72394,-2.0837 36.78212,-8.05081 14.1337,-4.94412 17.10176,-6.33086 20.65111,-9.64872 3.09359,-2.89176 6.21597,-2.70259 6.66017,0.40354 0.42671,2.98393 -2.24776,4.54964 -18.57951,10.87684 -7.55248,2.92595 -17.78177,7.02289 -22.73178,9.10423 l -9,3.78429 -14.47577,-0.0971 -14.47574,-0.0971 4.97575,4.51498 c 11.93658,10.83126 20.27711,10.039 51.36176,-4.8788 14.6123,-7.01257 18.70836,-8.12466 19.76667,-5.36674 0.90482,2.35786 -2.50504,5.44399 -9.50695,8.60451 -7.90575,3.56848 -20.10146,11.51233 -30.8716,20.10867 -8.8958,7.10038 -12.83282,8.48746 -20.52411,7.23115 -5.12228,-0.83668 -11.44437,-6.85535 -19.59144,-18.65118 -5.00599,-7.24796 -7.54606,-9.64248 -8.52518,-8.03671 -0.23698,0.38846 -0.96469,2.73131 -1.61734,5.2063 -0.65264,2.47502 -4.60259,11.70002 -8.77765,20.50001 l -7.59106,16.00002 -0.62914,13.67921 -0.62911,13.67924 -4.27581,6.09559 c -2.3517,3.35259 -6.44485,10.69693 -9.09593,16.32079 -10.93704,23.2015 -15.04188,40.60282 -15.09173,63.97746 -0.0386,18.17031 -1.52402,20.00965 -9.8609,12.21147 -10.153358,-9.49728 -11.747298,-19.11387 -7.369288,-44.46048 0.535868,-3.10219 0.426108,-3.34903 -0.97281,-2.18804 -4.29199,3.56202 -7.08661,23.2698 -4.71836,33.2739 2.28586,9.6562 5.49286,15.37512 13.140278,23.43277 9.20792,9.70175 25.82446,24.37629 45.69381,40.35345 17.52163,14.08936 21.16165,18.6206 21.16165,26.34278 0,4.2339 -0.4868,5.35472 -3.96464,9.12771 -2.18057,2.36564 -5.55557,5.15792 -7.50002,6.20508 -1.94442,1.04715 -3.53534,2.25176 -3.53534,2.67696 0,0.4252 2.93065,5.0058 6.51255,10.1791 9.77019,14.11109 11.85241,19.24876 11.24451,27.74487 -0.48923,6.83709 -0.47127,6.89953 1.47624,5.13702 1.08431,-0.98128 2.65667,-3.10911 3.4941,-4.72857 z m 4.93931,-349.22695 c -0.36661,-0.36662 -0.66667,-1.45678 -0.66667,-2.42245 0,-2.24621 6.18592,-4.46585 8.63157,-3.09721 1.51959,0.85043 1.47117,1.01892 -0.46975,1.63495 -1.19018,0.37757 -2.62931,1.55633 -3.19809,2.6191 -1.03374,1.93152 -3.04018,2.52249 -4.29706,1.26561 z m 26.40853,-2.8851 c -4.33942,-1.89891 -2.92573,-3.71479 2.54298,-3.26646 3.0994,0.25398 3.8818,0.71856 3.8818,2.30453 0,2.53867 -2.10236,2.85343 -6.42478,0.96193 z m -96.61681,132.38683 c 3.73682,-4.15631 4.58491,-5.76744 4.34264,-8.25003 -0.4922,-5.04393 -3.62415,-4.07951 -5.85736,1.80367 -1.02066,2.68883 -2.77549,5.86783 -3.89971,7.06447 -1.12419,1.19663 -2.04397,2.7092 -2.04397,3.36128 0,2.56244 3.03042,0.94556 7.4584,-3.97939 z M 300.7421,174.06791 c 1.51018,-4.62255 0.83263,-5.77315 -5.19844,-8.82807 -2.2368,-1.13299 -5.70663,-3.35009 -7.7108,-4.92691 -2.00414,-1.57678 -3.91665,-2.86693 -4.25001,-2.86693 -1.34759,0 -0.48226,6.3224 1.35942,9.93241 2.49457,4.88973 9.81566,11.24361 12.51024,10.85745 1.35186,-0.19389 2.44279,-1.57595 3.28959,-4.16795 z M 183.97678,112.41388 c 0,-3.70575 -2.11434,-8.99029 -4.33327,-10.8305 -2.73263,-2.266249 -3.21929,1.29713 -0.83958,6.14759 1.13741,2.31828 2.30245,5.00254 2.58901,5.96504 0.8496,2.85346 2.58384,1.9929 2.58384,-1.28213 z m 67.45964,-4.33123 c -0.79109,-4.21697 -5.38514,-8.636639 -8.97736,-8.636639 -3.50993,0 -3.90678,1.687709 -0.75178,3.197449 2.53515,1.21311 5.28056,5.36946 6.75734,10.23008 0.52656,1.73307 0.74056,1.77264 2.12092,0.39228 1.11843,-1.11844 1.34944,-2.52559 0.85088,-5.18317 z m 3.04037,-59.110575 c 2.33575,-1.438639 5.56021,-2.476648 7.74999,-2.494866 2.94286,-0.02268 3.74998,-0.421417 3.74998,-1.844107 0,-2.839899 -8.69942,-10.187112 -12.06199,-10.187112 -1.80865,0 -3.93475,3.933468 -3.94416,7.297059 -0.003,1.211603 -0.67839,3.491867 -1.49998,5.06725 -0.82163,1.575383 -1.49386,3.262862 -1.49386,3.750012 0,1.63162 3.46284,0.89832 7.50002,-1.588236 z"
       id="path843" />
  </g>
  <g
     inkscape:groupmode="layer"
     id="layer1"
     inkscape:label="Image 2" />
</svg>
