<?xml version="1.0" encoding="UTF-8" standalone="no"?>
<svg
   xmlns:dc="http://purl.org/dc/elements/1.1/"
   xmlns:cc="http://creativecommons.org/ns#"
   xmlns:rdf="http://www.w3.org/1999/02/22-rdf-syntax-ns#"
   xmlns:svg="http://www.w3.org/2000/svg"
   xmlns="http://www.w3.org/2000/svg"
   xmlns:sodipodi="http://sodipodi.sourceforge.net/DTD/sodipodi-0.dtd"
   xmlns:inkscape="http://www.inkscape.org/namespaces/inkscape"
   version="1.1"
   id="svg2"
   width="446"
   height="521"
   viewBox="0 0 446 521"
   sodipodi:docname="tux-color.svg"
   inkscape:version="1.0.1 (3bc2e813f5, 2020-09-07)">
  <metadata
     id="metadata8">
    <rdf:RDF>
      <cc:Work
         rdf:about="">
        <dc:format>image/svg+xml</dc:format>
        <dc:type
           rdf:resource="http://purl.org/dc/dcmitype/StillImage" />
        <dc:title></dc:title>
      </cc:Work>
    </rdf:RDF>
  </metadata>
  <defs
     id="defs6" />
  <sodipodi:namedview
     pagecolor="#ffffff"
     bordercolor="#666666"
     borderopacity="1"
     objecttolerance="10"
     gridtolerance="10"
     guidetolerance="10"
     inkscape:pageopacity="0"
     inkscape:pageshadow="2"
     inkscape:window-width="1920"
     inkscape:window-height="1020"
     id="namedview4"
     showgrid="false"
     inkscape:zoom="6.4242558"
     inkscape:cx="309.25671"
     inkscape:cy="321.52044"
     inkscape:window-x="0"
     inkscape:window-y="0"
     inkscape:window-maximized="1"
     inkscape:current-layer="g10"
     inkscape:document-rotation="0" />
  <g
     inkscape:groupmode="layer"
     id="layer1"
     inkscape:label="Image 2"
     style="display:inline">
    <path
       fill="#f9bc15"
       d="m 195.86575,115.6551 c 0,0 -8.10443,3.07909 -10.18716,4.9498 -2.46749,2.21762 -6.00199,5.08679 -9.60934,8.12372 -4.74842,3.99758 -11.58158,10.47778 -13.19038,13.14411 -0.89844,1.77202 -1.44979,1.00122 -0.80087,5.90627 0.31855,2.40782 3.87581,4.09995 6.17191,6.03931 1.84543,1.55872 1.99158,1.75543 5.14947,4.94064 5.59233,7.49851 9.92214,7.97791 21.68907,7.70006 5.47074,-0.12918 10.88078,-1.05894 15.87468,-2.40536 5.51954,-1.26413 7.48888,-1.98355 13.55483,-3.93858 8.43591,-2.25498 14.22556,-4.24011 20.68037,-7.78928 1.96624,-1.08113 4.04609,-2.61375 5.37825,-4.0483 1.24043,-0.74166 3.89565,-2.55036 5.5247,-0.79568 1.54695,2.77835 -1.11589,5.79071 -10.07956,9.45475 -1.83365,0.64477 -3.73515,1.34419 -4.22441,1.55614 -0.48928,0.21195 -2.39075,0.92029 -4.22552,1.57286 -3.55612,1.26499 -5.09175,1.87293 -6.33272,2.50654 -0.42478,0.21641 -0.96965,0.39378 -1.21095,0.39378 -0.2413,0 -1.59458,0.52652 -3.0079,1.16905 -1.29611,0.59082 -2.59755,1.16979 -3.90416,1.73685 -4.42206,1.94056 -7.56984,3.02738 -11.71842,4.89356 -4.33894,1.83389 -18.90402,2.17696 -29.31882,1.2522 -6.8231,-0.60572 -6.47283,0.70835 1.82476,6.83583 1.95709,1.44458 4.76606,3.28703 5.06184,3.53354 0.87451,0.45277 4.35411,1.65288 5.18983,2.06191 0.87735,0.88013 10.25869,-0.0524 14.09078,-1.27497 4.22859,-1.35762 9.125,-2.75034 12.96706,-4.95033 3.47861,-1.58194 6.79102,-2.23636 9.79419,-4.41704 2.92907,-1.62635 6.15919,-2.74682 8.97817,-4.22696 6.41245,-3.70274 11.72402,-2.19057 17.70871,-6.46264 2.1431,-1.61694 5.2472,-3.45284 6.80017,-8.18285 4.77595,-13.7542 2.76306,-16.61216 -8.23108,-20.21525 -1.34549,-0.44063 -2.84666,-0.95154 -3.33594,-1.13559 -0.48926,-0.18406 -1.79028,-0.59457 -2.89114,-0.91137 -1.10086,-0.31792 -2.20171,-0.70053 -2.44636,-0.85113 -0.24463,-0.14948 -1.24541,-0.53767 -2.22395,-0.86117 -3.19916,-1.05862 -8.3265,-3.60978 -11.47784,-5.7114 -7.21453,-4.8123 -11.9331,-7.75917 -26.26089,-8.18911 m 10.93344,5.12579 c 1.70468,1.19694 0.9358,3.89606 -1.068,3.89606 -1.92594,0 -6.77197,-2.18764 -6.96657,-3.20386 -0.3158,-1.64538 5.15082,-1.20536 5.15082,-1.20536 m -20.80673,0.76737 c 1.04526,0.77529 1.32743,0.73428 -0.99327,1.47832 -0.91738,0.29339 -1.60597,0.91057 -1.74583,1.06383 -0.94,1.03009 -2.98667,3.19271 -4.16475,3.32403 -1.90057,0.21185 -2.28303,-2.70968 -1.52849,-3.94569 1.13739,-1.86316 6.16108,-2.98637 6.97727,-2.38288 M 79.598724,353.96351 c -0.95783,0.392 -2.078807,0.65639 -3.048292,1.01841 -1.334169,0.52435 -3.336214,1.22079 -4.081242,1.48223 -2.10375,0.50684 -8.330168,9.79728 -8.72852,11.4775 -0.105024,0.44298 0.662428,-0.20939 1.274017,0.45321 0.648426,0.97796 0.767022,5.23025 0.137361,8.94667 -0.26354,1.00953 -0.6658,2.94577 -0.907099,3.92742 -5.331902,16.21813 -8.595038,19.43938 -36.860657,17.30022 -11.705834,-0.88591 -12.254872,4.86212 -7.266782,17.08286 1.34812,3.51804 2.805489,8.05921 4.214301,11.63152 2.604084,8.38364 2.984042,18.4614 -4.808707,30.24227 -3.587244,5.4236 -4.467122,8.80972 -2.746891,10.87452 1.088627,1.30738 6.505255,3.05117 18.257759,5.995 23.364146,6.29894 43.100276,10.82081 64.870793,15.96328 6.200705,1.66083 6.928865,1.83692 12.352095,2.96188 0.85622,0.22645 5.80925,1.40848 8.50023,2.03538 2.69099,0.62692 7.75623,1.60373 8.97942,1.89823 6.18884,1.08042 13.0545,0.49877 17.88308,-1.44165 11.3444,-3.26062 18.05965,-21.6174 13.96868,-38.18714 -2.25176,-8.24023 -6.16296,-14.22178 -9.48852,-20.47625 0,-0.25545 -4.36896,-7.06004 -9.34285,-14.55068 l -6.80864,-10.26266 c -3.49941,-5.27634 -6.89872,-10.39652 -7.55146,-11.37816 -0.65273,-0.98165 -2.09273,-3.02861 -3.19805,-4.54793 -1.1053,-1.52043 -2.01045,-2.95944 -2.01045,-3.19815 0,-0.23873 -0.17013,-0.50088 -0.37696,-0.58341 -0.20794,-0.0815 -0.85845,-0.88349 -1.44558,-1.78147 -1.56344,-2.38942 -6.28823,-9.03896 -6.60626,-9.29888 -0.15123,-0.12269 -1.06306,-1.32744 -2.02714,-2.67721 -5.77339,-8.08073 -16.018446,-18.71612 -20.177259,-21.49486 -5.028369,-3.35879 -8.735038,-4.21041 -12.956377,-3.41217 m 229.801556,12.14563 c -7.08143,1.25458 -9.57725,8.83077 -9.33137,24.53348 0.009,11.85673 0.36003,13.85961 1.96574,21.21192 0.70943,3.25059 0.75998,4.86891 1.81636,11.4002 0.278,1.71788 0.46571,8.69538 0.83539,12.95798 0.009,8.83816 -0.44468,11.92969 -1.69454,20.96641 -1.67456,15.37253 -1.42583,23.73745 3.30369,28.74511 11.86371,15.11177 27.33344,15.60038 45.78551,1.45117 0.48928,-0.41609 5.79773,-4.30707 9.46726,-7.0713 4.5046,-3.51368 7.21247,-5.32656 11.64639,-8.47777 7.00571,-3.98005 13.06443,-6.58464 19.81211,-9.39256 4.92642,-2.05003 10.07764,-3.51653 15.0593,-5.42841 8.12861,-3.276 14.7083,-4.97191 19.53093,-10.59275 2.93396,-3.41957 6.91328,-7.06792 4.56371,-12.72348 -1.38987,-3.3455 -6.14109,-5.19019 -9.7165,-6.93802 -3.57247,-1.7464 -7.72539,-1.96768 -11.43377,-3.40307 -2.26465,-0.87657 -5.95253,-2.64821 -6.562,-3.1644 -5.22352,-4.42405 -8.45352,-10.71373 -9.41818,-15.36245 -1.7212,-8.29448 -1.77465,-21.91134 0.0435,-23.88293 0.41699,-0.46294 1.923,-2.04349 2.82151,-0.6656 -0.0489,-0.58042 -0.0676,-3.88859 -1.74619,-7.20276 -1.97488,-3.89759 -4.65142,-5.80063 -8.16082,-5.80063 l -3.12117,-0.10298 -5.5329,5.98944 c -3.22807,3.25617 -4.94248,4.79146 -7.49993,7.09376 -0.89155,0.8026 -1.79503,1.57025 -2.73313,2.34121 -0.91813,0.75456 -5.95353,4.34824 -9.12644,6.21258 -0.77932,0.45791 -2.30169,1.07383 -2.424,1.2155 -1.08522,0.58984 -7.69227,3.17779 -9.77723,3.6028 -9.30751,2.11098 -21.62304,-4.90604 -28.6474,-18.5897 -0.71439,-1.85514 -0.35853,-3.66666 -1.01933,-5.30158 0,-2.52551 -5.59036,-4.15582 -7.27234,-3.90539"
       id="path6"
       style="fill-rule:evenodd;stroke-width:1.11374"
       sodipodi:nodetypes="ccscsscsccacccsccsccccccccccccccsccccccsccccsssccccscccscccccccsccccccscsccccccccccccccccacasaasscccsccasaccccc" />
  </g>
  <g
     inkscape:groupmode="layer"
     inkscape:label="Image"
     id="g10"
     style="display:inline">
    <path
       style="fill:#000000;stroke-width:0.999999"
       d="m 123.97678,509.53326 c -4.67501,-1.55996 -14.35,-5.10103 -21.5,-7.86905 -19.007998,-7.35874 -23.502688,-8.66997 -50.503408,-14.73331 -29.20962,-6.55941 -36.52006,-8.85449 -40.32578,-12.66021 -2.5614203,-2.56143 -2.8122303,-3.39126 -2.4448603,-8.08944 0.22526,-2.87939 1.6163903,-9.22307 3.0916903,-14.09711 3.22753,-10.66291 3.40804,-18.23867 0.68235,-28.63812 -2.63535,-10.05494 -2.62522,-19.46226 0.0265,-23.81019 2.79886,-4.59065 6.64917,-5.83404 20.18858,-6.51954 8.79367,-0.44523 12.67468,-1.08313 15.56689,-2.55859 5.07208,-2.58761 5.76015,-3.52051 10.20688,-13.83919 2.11279,-4.9028 4.38289,-8.77251 5.1462,-8.77251 4.1794,0 -0.16894,20.27392 -5.57862,26.00976 -4.54878,4.82313 -9.59255,5.84633 -24.71966,5.01468 -11.99596,-0.65949 -12.7742,-0.58617 -14.75002,1.3897 -3.00862,3.00858 -2.60553,6.60476 1.97344,17.60693 2.23264,5.36447 4.48845,12.07479 5.0129,14.91182 1.28413,6.94647 -0.29178,14.77599 -4.23991,21.06712 -5.87248,9.35706 -6.16547,10.03654 -5.48916,12.73104 0.82171,3.27405 -0.11225,2.98711 51.15685,15.7203 55.217808,13.71394 62.059388,15.21048 69.570938,15.21831 14.31965,0.0151 22.16564,-7.37964 24.98037,-23.54298 2.55171,-14.65293 -1.42843,-24.12817 -25.04689,-59.62666 -34.43687,-51.75855 -46.137678,-63.8126 -58.339658,-60.10076 -2.29062,0.69679 -5.525254,2.13477 -7.235264,2.41521 -3.88078,0.63643 -4.396716,-1.39474 -4.415806,-13.40789 -0.0151,-10.4575 1.04988,-13.71591 11.75233,-35.90657 4.37684,-9.07499 10.97484,-24.37501 14.66218,-33.99999 8.816048,-23.01226 12.264338,-29.72591 21.922808,-42.68255 12.094,-16.22381 34.72831,-49.34842 36.36382,-53.21733 1.23179,-2.91379 1.25866,-6.345 0.18784,-24 -0.68711,-11.33008 -1.28382,-36.35014 -1.326,-55.600139 -0.068,-31.03341 0.13568,-35.85001 1.79576,-42.50001 6.18218,-24.7615 19.93013,-39.134514 43.03745,-44.994142 12.25057,-3.1065448 35.91812,-2.8722518 49.15935,0.486652 25.38116,6.438463 43.93414,22.357946 50.42865,43.2706 3.06599,9.87254 4.77895,21.83203 6.98068,48.736909 3.16686,38.6993 4.3708,44.21117 13.76073,63 10.74954,21.50944 17.25381,31.9759 34.05199,54.79586 6.80009,9.23773 14.65735,20.48772 17.46059,24.99998 11.32301,18.22621 18.59905,37.38807 23.97067,63.12821 2.62205,12.56443 3.15708,17.40824 3.21177,29.07594 0.0635,13.5354 -0.0302,14.19912 -2.87872,20.00001 -3.78663,7.71651 -20.37985,24.43106 -29.5646,29.78083 -7.83972,4.56635 -16.07777,7.12906 -20.57219,6.39972 -9.00155,-1.46075 -17.52095,-9.01092 -22.86017,-20.25948 -3.83184,-8.07277 -5.6321,-9.25288 -10.81297,-7.0882 -5.52631,2.30903 -7.13276,6.92644 -7.53834,21.66713 -0.26986,9.81044 0.11225,14.75924 1.7763,23.00001 2.82543,13.99242 3.53465,27.44164 2.03025,38.50001 -2.223,16.34014 -2.43265,26.81537 -0.61342,30.64917 4.94688,10.42469 13.89468,16.17827 25.09947,16.1393 9.67676,-0.034 13.51098,-1.86599 30.17495,-14.4203 18.67798,-14.07159 20.56044,-15.10828 39.62567,-21.82235 19.7472,-6.95425 25.24539,-9.69403 29.98749,-14.94296 8.49842,-9.40672 5.23759,-15.50302 -10.7881,-20.16881 -10.68759,-3.11165 -12.21135,-3.8722 -15.86838,-7.92008 -5.5008,-6.0887 -7.97991,-13.84641 -8.06177,-25.22691 -0.0575,-7.96395 0.24378,-10.02697 1.67301,-11.45714 2.50439,-2.50632 3.40497,-0.96333 4.54321,7.78378 0.54494,4.18757 1.76198,9.23898 2.70463,11.22539 2.72153,5.73524 8.96036,12.13538 18.32795,18.80194 17.52783,12.47384 20.95903,17.79836 16.34177,25.35897 -2.91171,4.76787 -18.087,14.83982 -36.06875,23.93911 -19.78764,10.0131 -27.06032,14.99588 -41.39516,28.36131 -14.26023,13.29592 -16.9581,14.57163 -31.80132,15.03745 -20.2653,0.63598 -28.59194,-2.73751 -36.62343,-14.83789 -2.37287,-3.57498 -5.06574,-7.0625 -5.98417,-7.75 -2.65077,-1.98425 -91.56728,-1.74387 -100.11253,0.27061 -8.95975,2.11227 -15.3487,5.51214 -25.67505,13.66303 -4.95001,3.90717 -10.44805,7.71421 -12.21789,8.46014 -5.16,2.1747 -13.83889,1.59447 -23.28212,-1.55656 z m 57.72737,-32.52695 c 1.86659,-3.60956 2.01328,-14.29818 0.24227,-17.64249 -0.70424,-1.32979 -2.83556,-4.32526 -4.73628,-6.65662 -3.35713,-4.11772 -3.78709,-7.26119 -0.99322,-7.26119 0.71656,0 4.35107,2.22228 8.0767,4.93844 9.17582,6.68954 13.23646,7.48944 34.35075,6.76683 30.54176,-1.04527 41.41421,-5.83861 57.40827,-25.30961 1.4025,-1.70736 3.78618,-3.9143 5.29708,-4.90431 2.50345,-1.64028 2.88722,-1.65986 4.32677,-0.22035 2.90683,2.9068 2.70935,10.33285 -0.62446,23.48277 -4.15464,16.38773 -4.86085,23.39811 -2.69076,26.71008 2.25169,3.43649 5.29886,3.32798 6.00484,-0.21393 3.80504,-19.09035 4.83742,-32.08289 5.46274,-68.74998 0.63417,-37.18666 0.69653,-38.07798 2.91379,-41.64355 2.55095,-4.10211 6.60404,-6.3241 13.2593,-7.26906 4.34903,-0.61749 4.59345,-0.83504 6.28305,-5.59215 1.44321,-4.06348 3.57087,-6.03397 6.47494,-7.72244 4.45722,-2.59149 10.06202,-2.67545 15.21694,-2.77281 5.28104,-0.0997 9.92663,0.38876 15.68538,2.24999 2.95823,0.9561 5.97366,2.25003 6.9371,2.25003 2.80214,0 -2.9477,-5.40257 -9.25981,-8.70059 -3.21895,-1.68185 -5.35884,-3.46655 -5.36028,-4.47046 -9.8e-4,-0.91911 0.98567,-5.64409 2.19326,-10.50002 1.74067,-6.99935 2.19311,-11.73011 2.18336,-22.82895 -0.0113,-13.07003 -0.22148,-14.61132 -3.16082,-23.2029 -7.17362,-20.9681 -22.39449,-45.53477 -31.82222,-51.3614 -1.92563,-1.19014 -3.72624,-1.93875 -4.00139,-1.6636 -0.27515,0.27515 2.86065,5.61396 6.96839,11.86405 9.47566,14.41773 18.84499,32.34316 21.62026,41.36383 8.10263,26.33704 5.96595,51.81956 -4.96807,59.25003 -2.47027,1.67868 -4.73333,2.2461 -8.91304,2.23469 -9.35036,-0.0265 -10.09927,-1.44545 -10.11065,-19.16897 -0.0113,-19.65102 -1.59602,-34.77963 -4.57198,-43.68326 -1.40311,-4.19784 -6.53435,-15.28248 -11.40272,-24.63246 -6.6841,-12.83709 -9.74774,-20.06098 -12.51092,-29.50001 -4.28931,-14.65213 -9.55975,-26.3972 -15.7917,-35.19144 -9.4315,-13.30935 -11.01868,-20.39388 -7.33481,-32.74005 2.1044,-7.05271 2.0589,-12.31884 -0.12926,-14.95597 -1.01114,-1.21859 -6.46205,-3.75866 -12.91053,-6.01617 -19.77804,-6.92406 -23.79583,-10.40463 -23.77553,-20.59639 0.0227,-10.8415 4.65139,-16.499979 13.50024,-16.499979 4.88085,0 11.17236,3.20496 13.00177,6.623209 1.64387,3.07158 1.60452,9.52815 -0.0983,16.14689 -1.53271,5.95718 -0.77099,7.53381 4.23213,8.75985 3.9103,0.95826 7.43017,-2.87867 8.36606,-9.11966 1.42416,-9.49693 -2.92789,-27.121959 -8.26254,-33.461829 -3.38351,-4.02108 -6.68553,-5.60821 -14.49838,-6.96877 -11.79973,-2.05485 -17.90351,1.54723 -23.68052,13.97466 -2.17761,4.6845 -2.60156,7.09845 -2.7301,15.545659 l -0.15232,9.99998 -2.871,-0.21052 c -11.35,-0.83164 -18.37482,-1.66503 -18.39682,-2.18252 -0.31748,-7.47323 -2.29518,-20.939829 -3.4979,-23.819039 -4.68431,-11.21383 -15.91926,-14.09727 -24.0861,-6.18165 -5.40733,5.241 -6.77197,10.1923 -6.10794,22.161489 0.6133,11.0549 2.64563,18.45189 5.87195,21.37165 1.99022,1.80113 2.08811,1.78008 4.44045,-0.95467 3.06701,-3.56565 3.03012,-5.04549 -0.17801,-7.14766 -3.47747,-2.27852 -5.41648,-7.30836 -5.41648,-14.05058 0,-8.077499 3.56424,-11.334579 11.5,-10.508869 5.96089,0.62026 11.50772,12.448179 9.45328,20.157959 -0.71467,2.68188 -2.40688,4.72147 -6.45029,7.77427 -3.01482,2.27618 -8.6363,7.17074 -12.49221,10.8768 -6.19665,5.95574 -7.0108,7.16666 -7.0108,10.42768 0,3.23478 0.54214,4.06242 4.399,6.71599 2.41942,1.66462 5.87811,4.89418 7.68597,7.17679 4.39729,5.55202 8.02923,6.8942 18.63292,6.88574 10.24137,-0.008 19.72394,-2.0837 36.78212,-8.05081 14.1337,-4.94412 17.10176,-6.33086 20.65111,-9.64872 3.09359,-2.89176 6.21597,-2.70259 6.66017,0.40354 0.42671,2.98393 -2.24776,4.54964 -18.57951,10.87684 -7.55248,2.92595 -17.78177,7.02289 -22.73178,9.10423 l -9,3.78429 -14.47577,-0.0971 -14.47574,-0.0971 4.97575,4.51498 c 11.93658,10.83126 20.27711,10.039 51.36176,-4.8788 14.6123,-7.01257 18.70836,-8.12466 19.76667,-5.36674 0.90482,2.35786 -2.50504,5.44399 -9.50695,8.60451 -7.90575,3.56848 -20.10146,11.51233 -30.8716,20.10867 -8.8958,7.10038 -12.83282,8.48746 -20.52411,7.23115 -5.12228,-0.83668 -11.44437,-6.85535 -19.59144,-18.65118 -5.00599,-7.24796 -7.54606,-9.64248 -8.52518,-8.03671 -0.23698,0.38846 -0.96469,2.73131 -1.61734,5.2063 -0.65264,2.47502 -4.60259,11.70002 -8.77765,20.50001 0,0 -6.16221,10.2724 -7.59106,16.00002 -1.10484,4.42883 -0.62914,13.67921 -0.62914,13.67921 0,0 0.12223,11.05817 -0.80843,13.35355 -0.88002,2.17048 -4.09649,6.42128 -4.09649,6.42128 -2.3517,3.35259 -6.44485,10.69693 -9.09593,16.32079 -10.93704,23.2015 -15.04188,40.60282 -15.09173,63.97746 -0.0386,18.17031 -1.52402,20.00965 -9.8609,12.21147 -10.153358,-9.49728 -11.747298,-19.11387 -7.369288,-44.46048 0.535868,-3.10219 0.426108,-3.34903 -0.97281,-2.18804 -4.29199,3.56202 -7.08661,23.2698 -4.71836,33.2739 2.28586,9.6562 5.49286,15.37512 13.140278,23.43277 9.20792,9.70175 25.82446,24.37629 45.69381,40.35345 17.52163,14.08936 21.16165,18.6206 21.16165,26.34278 0,4.2339 -0.4868,5.35472 -3.96464,9.12771 -2.18057,2.36564 -5.55557,5.15792 -7.50002,6.20508 -1.94442,1.04715 -3.53534,2.25176 -3.53534,2.67696 0,0.4252 2.93065,5.0058 6.51255,10.1791 9.77019,14.11109 11.85241,19.24876 11.24451,27.74487 -0.48923,6.83709 -0.47127,6.89953 1.47624,5.13702 1.08431,-0.98128 2.65667,-3.10911 3.4941,-4.72857 z m 4.93931,-349.22695 c -0.36661,-0.36662 -0.66667,-1.45678 -0.66667,-2.42245 0,-2.24621 6.18592,-4.46585 8.63157,-3.09721 1.51959,0.85043 1.47117,1.01892 -0.46975,1.63495 -1.19018,0.37757 -2.62931,1.55633 -3.19809,2.6191 -1.03374,1.93152 -3.04018,2.52249 -4.29706,1.26561 z m 26.40853,-2.8851 c -4.33942,-1.89891 -2.92573,-3.71479 2.54298,-3.26646 3.0994,0.25398 3.8818,0.71856 3.8818,2.30453 0,2.53867 -2.10236,2.85343 -6.42478,0.96193 z m -96.61681,132.38683 c 3.73682,-4.15631 4.58491,-5.76744 4.34264,-8.25003 -0.4922,-5.04393 -4.10218,-4.23937 -5.85736,1.80367 -0.63978,2.20275 -1.86161,5.18568 -3.80758,7.14104 -0.93888,0.94342 -2.1361,2.63263 -2.1361,3.28471 0,2.56244 3.03042,0.94556 7.4584,-3.97939 z M 300.7421,174.06791 c 1.51018,-4.62255 0.83263,-5.77315 -5.19844,-8.82807 -2.2368,-1.13299 -5.70663,-3.35009 -7.7108,-4.92691 -2.00414,-1.57678 -4.14811,-2.8582 -4.25001,-2.86693 -1.34267,-0.11508 -0.48226,6.3224 1.35942,9.93241 2.49457,4.88973 9.81566,11.24361 12.51024,10.85745 1.35186,-0.19389 2.44279,-1.57595 3.28959,-4.16795 z M 183.97678,112.41388 c 0,-3.70575 -2.11434,-8.99029 -4.33327,-10.8305 -2.73263,-2.266249 -3.21929,1.29713 -0.83958,6.14759 1.13741,2.31828 2.30245,5.00254 2.58901,5.96504 0.8496,2.85346 2.58384,1.9929 2.58384,-1.28213 z m 67.45964,-4.33123 c -0.79109,-4.21697 -5.38514,-8.636639 -8.97736,-8.636639 -3.50993,0 -3.90678,1.687709 -0.75178,3.197449 2.53515,1.21311 5.28056,5.36946 6.75734,10.23008 0.52656,1.73307 0.74056,1.77264 2.12092,0.39228 1.11843,-1.11844 1.34944,-2.52559 0.85088,-5.18317 z m 2.97797,-59.26777 c 2.33575,-1.438639 2.7124,-2.471786 6.9656,-2.68887 2.94286,-0.02268 4.59677,-0.07022 4.59677,-1.492908 0,-2.839899 -7.6858,-10.529651 -12.06199,-10.187112 -1.30067,0.101808 -3.00647,1.192312 -3.5879,6.492245 -0.307,2.697262 -0.78101,4.868068 -1.84817,6.288641 -1.08027,1.438037 -1.50193,2.846285 -1.50193,3.333435 0,1.63162 3.40044,0.741125 7.43762,-1.745431 z"
       id="path843"
       sodipodi:nodetypes="cssscsscscsssscsscsscsssscsssscscssssssssscsssssssscsssssccsssssssssssscccsssssssssssssssaassscscsssscsccssssssccsscsssssccccssssscsssscssscssssscccssssssscssacssccsssscssssssssccssscssscsscsssscssssscsssscsssssssscsscsss" />
  </g>
</svg>
